<svg width="24" height="24" viewBox="0 0 24 24" fill="none" xmlns="http://www.w3.org/2000/svg">
<path fill-rule="evenodd" clip-rule="evenodd" d="M5 4C4.44772 4 4 4.44772 4 5V19C4 19.5523 4.44772 20 5 20H19C19.5523 20 20 20.4477 20 21C20 21.5523 19.5523 22 19 22H5C3.34315 22 2 20.6569 2 19V5C2 3.34315 3.34315 2 5 2H19C19.5523 2 20 2.44772 20 3C20 3.55228 19.5523 4 19 4H5Z" fill="#7B8FA5"/>
<path fill-rule="evenodd" clip-rule="evenodd" d="M9 2C9.55228 2 10 2.44772 10 3V21C10 21.5523 9.55228 22 9 22C8.44772 22 8 21.5523 8 21V3C8 2.44772 8.44772 2 9 2Z" fill="#7B8FA5"/>
<path fill-rule="evenodd" clip-rule="evenodd" d="M19.5269 7.13707C19.9174 7.5276 19.9174 8.16076 19.5269 8.55129L16.0782 11.9999L19.5269 15.4486C19.9174 15.8391 19.9174 16.4723 19.5269 16.8628C19.1363 17.2533 18.5032 17.2533 18.1127 16.8628L13.9569 12.707C13.5664 12.3165 13.5664 11.6834 13.9569 11.2928L18.1127 7.13707C18.5032 6.74655 19.1363 6.74655 19.5269 7.13707Z" fill="#7B8FA5"/>
</svg>
