<svg width="24" height="24" viewBox="0 0 24 24" fill="none" xmlns="http://www.w3.org/2000/svg">
<path fill-rule="evenodd" clip-rule="evenodd" d="M19 4C19.5523 4 20 4.44772 20 5V19C20 19.5523 19.5523 20 19 20H5C4.44772 20 4 20.4477 4 21C4 21.5523 4.44772 22 5 22H19C20.6569 22 22 20.6569 22 19V5C22 3.34315 20.6569 2 19 2H5C4.44772 2 4 2.44772 4 3C4 3.55228 4.44772 4 5 4H19Z" fill="#7B8FA5"/>
<path fill-rule="evenodd" clip-rule="evenodd" d="M15 2C14.4477 2 14 2.44772 14 3V21C14 21.5523 14.4477 22 15 22C15.5523 22 16 21.5523 16 21V3C16 2.44772 15.5523 2 15 2Z" fill="#7B8FA5"/>
<path fill-rule="evenodd" clip-rule="evenodd" d="M4.47313 7.13707C4.0826 7.5276 4.0826 8.16076 4.47313 8.55129L7.92178 11.9999L4.47313 15.4486C4.0826 15.8391 4.0826 16.4723 4.47313 16.8628C4.86365 17.2533 5.49682 17.2533 5.88734 16.8628L10.0431 12.707C10.4336 12.3165 10.4336 11.6834 10.0431 11.2928L5.88734 7.13707C5.49682 6.74655 4.86365 6.74655 4.47313 7.13707Z" fill="#7B8FA5"/>
</svg>
