<svg width="23" height="27" viewBox="0 0 23 27" fill="none" xmlns="http://www.w3.org/2000/svg">
<g clip-path="url(#clip0_412_7081)">
<path d="M18.7936 14.3444C18.8324 18.4297 22.4622 19.7901 22.5005 19.8074C22.4699 19.9034 21.9208 21.7447 20.5885 23.6475C19.4368 25.2901 18.2411 26.9326 16.3583 26.965C14.5079 26.9983 13.913 25.8928 11.7975 25.8928C9.68201 25.8928 9.02209 26.9309 7.27166 26.9983C5.45399 27.0653 4.06994 25.2197 2.90873 23.581C0.535885 20.2289 -1.27748 14.1086 1.15744 9.97738C2.36563 7.92589 4.5264 6.6266 6.87382 6.5929C8.65873 6.55963 10.3432 7.76627 11.4346 7.76627C12.526 7.76627 14.5721 6.31494 16.7242 6.52804C17.6251 6.56469 20.154 6.88393 21.7781 9.20665C21.6488 9.28583 18.7609 10.9279 18.7919 14.3449M15.3143 4.31104C16.2794 3.16968 16.929 1.58063 16.7518 0C15.3609 0.0547513 13.679 0.905503 12.6811 2.04644C11.7872 3.05723 11.004 4.67324 11.2156 6.2227C12.7674 6.33978 14.3501 5.45281 15.3148 4.31104" fill="white"/>
</g>
<defs>
<clipPath id="clip0_412_7081">
<rect width="22.5" height="27" fill="white"/>
</clipPath>
</defs>
</svg>
